<?xml version="1.0" encoding="UTF-8"?>
<svg id="Layer_1" data-name="Layer 1" xmlns="http://www.w3.org/2000/svg" xmlns:xlink="http://www.w3.org/1999/xlink" viewBox="0 0 566.82 161.29">
  <defs>
    <style>
      .cls-1 {
        fill: #f26c73;
      }

      .cls-2 {
        fill: #ffcb77;
      }

      .cls-3 {
        filter: url(#outer-glow-1);
      }
    </style>
    <filter id="outer-glow-1" x="-12.33" y="26.75" width="591.84" height="134.16" filterUnits="userSpaceOnUse">
      <feOffset dx="0" dy="0"/>
      <feGaussianBlur result="blur" stdDeviation="13"/>
      <feFlood flood-color="#f493b6" flood-opacity=".84"/>
      <feComposite in2="blur" operator="in"/>
      <feComposite in="SourceGraphic"/>
    </filter>
  </defs>
  <path class="cls-2" d="M535.38,115.39l-10.1-19.25-20.92,3.83c-2.76.51-4.58-2.79-2.68-4.85l14.66-16.01-10.22-19.48c-1.32-2.52,1.37-5.25,3.91-3.97l19.01,9.59,14.38-15.7c1.92-2.1,5.41-.5,5.06,2.33l-2.66,21.84,19.39,9.78c2.5,1.26,1.97,4.98-.79,5.49l-20.92,3.83-2.62,21.58c-.35,2.85-4.16,3.55-5.49,1.01Z"/>
  <path class="cls-2" d="M63.73,146.18l-21.21-4.78-10.63,18.42c-1.4,2.43-5.09,1.68-5.44-1.1l-2.7-21.54-21.47-4.83c-2.78-.63-3.12-4.44-.49-5.55l19.62-8.27-2.65-21.13c-.35-2.82,3.12-4.44,5.05-2.35l14.92,16.17,20.01-8.43c2.58-1.09,5.07,1.73,3.67,4.16l-10.63,18.42,14.74,15.98c1.95,2.11,0,5.47-2.79,4.84Z"/>
  <g class="cls-3">
    <path class="cls-1" d="M26.97,102.2c0-2.55-.07-5.63-.07-8.88,0-12.05.63-27.09,6.63-27.09s6.56,11.08,6.56,23.66v14.95c0,7.48-.49,16.27-5.65,16.27-6.63,0-7.47-9.85-7.47-18.91Z"/>
    <path class="cls-1" d="M63.53,89.71c1.12,0,1.19-1.85,1.19-3.17,0-2.11-.14-4.93-.14-7.83,0-5.98.77-12.4,5.51-12.4,2.37,0,6.77,3.25,6.77,8.97,0,10.47.07,14.78.07,24.19s-.49,21.64-4.96,21.64c-11.31,0-9.77-22.16-13.47-22.16-1.12,0-1.33,2.73-1.33,6.6v2.02c0,6.33-.28,13.54-6.35,13.54-7.4,0-7.68-10.47-7.68-20.05v-18.29c0-7.65,1.67-15.83,7.4-15.83,4.82,0,9.42,22.78,12.98,22.78Z"/>
    <path class="cls-1" d="M86.28,121.55c-3.91,0-6.91-1.67-6.91-6.95,0-8.53,8.17-10.11,8.17-17.5s-6.91-9.59-6.91-17.41c0-8.71,5.93-13.19,15.22-13.19,3.84,0,6.35,3.25,6.35,7.48,0,6.07-6.49,4.05-6.49,9.5,0,6.77,6,11.26,6,18.82,0,11.96-6.84,19.26-15.42,19.26Z"/>
    <path class="cls-1" d="M114.06,89.1c0-10.11-10.19,0-10.19-11.87,0-10.47,8.79-11.17,16.96-11.17h4.54c4.26,0,8.24,2.81,8.24,8.79,0,11.26-8.24,2.38-8.24,12.93,0,6.24.7,14.16.7,20.4,0,5.1-1.6,12.75-6.14,12.75-5.1,0-5.72-7.21-5.72-13.9,0-5.19-.14-13.63-.14-17.94Z"/>
    <path class="cls-1" d="M131.43,114.96c0-17.5,6.98-48.9,17.31-48.9,4.4,0,7.4,6.42,9.98,14.86,2.44,8.18,4.4,18.21,4.68,28.41,0,5.72-2.09,11.79-6.07,11.79-6.63,0-2.72-12.58-6.42-15.92-.63-.53-2.16-1.06-3.7-1.06-1.33,0-2.65.44-3.14,1.41-2.3,5.1-1.75,15.48-8.17,15.48-3.21,0-4.47-2.46-4.47-6.07ZM150.21,89.45c0-2.81-.07-7.39-1.81-7.39-2.3,0-2.72,3.87-2.72,7.21,0,2.2.77,3.17,2.44,3.17,1.47,0,2.09-1.06,2.09-2.99Z"/>
    <path class="cls-1" d="M164.72,93.76c0-11.87,4.82-27.18,17.94-27.18,4.4,0,12.77,4.22,12.77,10.82,0,3.87-2.93,5.8-5.16,5.8-3.49,0-4.61-2.37-8.17-2.37-4.12,0-6.7,4.66-6.7,10.73,0,5.45.98,11.96,5.51,11.96,2.02,0,4.68-.26,4.68-3.17,0-3.78-5.23,1.41-5.23-6.16,0-5.19,2.51-6.77,5.23-6.77,5.93,0,10.47,2.64,10.47,10.2,0,12.93-4.54,22.96-14.52,22.96-13.61,0-16.82-14.86-16.82-26.83Z"/>
    <path class="cls-1" d="M221.39,120.59c-7.12,0-7.61-19.88-10.33-19.88-.84,0-1.05,2.2-1.05,4.4s.21,4.93.21,7.48c0,5.72-2.09,9.23-6.84,9.23-4.19,0-4.47-4.13-4.47-9.41v-21.81c0-5.72.14-9.76.14-14.69,0-6.07,1.6-9.76,6.49-9.76,7.96,0,18.7.09,18.7,12.05,0,8.62-4.47,11.43-4.47,13.46,0,4.84,6.77,13.98,6.77,22.6,0,3.08-1.81,6.33-5.16,6.33ZM209.95,84.35c1.81,0,3.49-2.64,3.49-4.75,0-1.85-1.54-2.81-2.93-2.81-1.12,0-1.26,1.76-1.26,3.52v1.58c0,1.5.07,2.46.7,2.46Z"/>
    <path class="cls-1" d="M227.95,114.96c0-17.5,6.98-48.9,17.31-48.9,4.4,0,7.4,6.42,9.98,14.86,2.44,8.18,4.4,18.21,4.68,28.41,0,5.72-2.09,11.79-6.07,11.79-6.63,0-2.72-12.58-6.42-15.92-.63-.53-2.16-1.06-3.7-1.06-1.33,0-2.65.44-3.14,1.41-2.3,5.1-1.75,15.48-8.17,15.48-3.21,0-4.47-2.46-4.47-6.07ZM246.72,89.45c0-2.81-.07-7.39-1.81-7.39-2.3,0-2.72,3.87-2.72,7.21,0,2.2.77,3.17,2.44,3.17,1.47,0,2.09-1.06,2.09-2.99Z"/>
    <path class="cls-1" d="M335.49,67.55c6.21,0,2.02,23.57,6,23.57,4.26,0-1.05-24.98,9.28-24.98,2.72,0,4.33,2.99,4.33,8,0,10.29-1.95,46.97-9,46.97s-6.63-11.52-9.63-11.52c-2.58,0-2.37,11.52-9.21,11.52-7.26,0-12.63-30.7-12.63-42.74,0-5.98,1.67-11.35,5.51-11.35,8.03,0,5.3,25.77,9.63,25.77.84,0,2.09-3.08,2.09-5.45,0-1.5-.07-3.69-.07-6.07,0-6.33.35-13.72,3.7-13.72Z"/>
    <path class="cls-1" d="M262.56,83.47c0-8,.42-16.27,6.14-16.27,6.98,0,6.28,16.97,10.12,16.97,4.54,0,4.96-16.71,10.61-16.71,6.77,0,7.4,8.71,7.4,16.8s-.07,15.74-.07,23.75c0,5.37-1.54,13.1-5.79,13.1-4.54,0-5.86-5.89-5.86-12.05,0-2.81.21-5.72.21-8s-.14-3.87-1.05-3.87c-3.28,0-1.81,9.23-4.26,9.23-2.79,0-3.14-9.32-4.89-9.32-.77,0-1.05,1.32-1.05,2.9,0,3.17.42,5.01.42,8.18,0,5.63-.84,12.93-4.47,12.93-6.35,0-7.4-8.44-7.4-16.53,0-5.81-.07-11.08-.07-16.71v-4.4Z"/>
    <path class="cls-1" d="M380.44,120.59c-7.12,0-7.61-19.88-10.33-19.88-.84,0-1.05,2.2-1.05,4.4s.21,4.93.21,7.48c0,5.72-2.09,9.23-6.84,9.23-4.19,0-4.47-4.13-4.47-9.41v-21.81c0-5.72.14-9.76.14-14.69,0-6.07,1.61-9.76,6.49-9.76,7.96,0,18.71.09,18.71,12.05,0,8.62-4.47,11.43-4.47,13.46,0,4.84,6.77,13.98,6.77,22.6,0,3.08-1.81,6.33-5.16,6.33ZM368.99,84.35c1.81,0,3.49-2.64,3.49-4.75,0-1.85-1.54-2.81-2.93-2.81-1.12,0-1.26,1.76-1.26,3.52v1.58c0,1.5.07,2.46.7,2.46Z"/>
    <path class="cls-1" d="M387,114.96c0-17.5,6.98-48.9,17.31-48.9,4.4,0,7.4,6.42,9.98,14.86,2.44,8.18,4.4,18.21,4.68,28.41,0,5.72-2.09,11.79-6.07,11.79-6.63,0-2.72-12.58-6.42-15.92-.63-.53-2.16-1.06-3.7-1.06-1.33,0-2.65.44-3.14,1.41-2.3,5.1-1.74,15.48-8.17,15.48-3.21,0-4.47-2.46-4.47-6.07ZM405.77,89.45c0-2.81-.07-7.39-1.82-7.39-2.3,0-2.72,3.87-2.72,7.21,0,2.2.77,3.17,2.44,3.17,1.46,0,2.09-1.06,2.09-2.99Z"/>
    <path class="cls-1" d="M421.82,106.16c0-8.62-.28-16.97-.28-24.45,0-12.14,3.77-15.74,13.4-15.74,7.89,0,15.15,3.87,15.15,13.46,0,19.88-14.66,10.2-14.66,19.26,0,3.96.35,11.87.35,15.04,0,5.63-.77,7.3-5.44,7.3-6.14,0-8.51-3.87-8.51-14.86ZM437.03,77.31c-1.61,0-2.93.79-2.93,3.43,0,1.67.84,2.2,2.16,2.2,1.61,0,3.28-1.06,3.28-2.99,0-1.58-1.12-2.64-2.51-2.64Z"/>
    <path class="cls-1" d="M452.66,106.16c0-8.62-.28-16.97-.28-24.45,0-12.14,3.77-15.74,13.4-15.74,7.89,0,15.15,3.87,15.15,13.46,0,19.88-14.66,10.2-14.66,19.26,0,3.96.35,11.87.35,15.04,0,5.63-.77,7.3-5.44,7.3-6.14,0-8.51-3.87-8.51-14.86ZM467.88,77.31c-1.61,0-2.93.79-2.93,3.43,0,1.67.84,2.2,2.16,2.2,1.61,0,3.28-1.06,3.28-2.99,0-1.58-1.12-2.64-2.51-2.64Z"/>
    <path class="cls-1" d="M506.89,107.13c0,8.8-4.89,13.98-12.14,13.98-10.54,0-11.59-11.96-11.59-25.33,0-3.34.07-6.77.07-10.11,0-13.46,4.4-19,13.96-19,3.56,0,7.82,1.41,7.82,7.12,0,7.48-9.84,2.64-9.84,7.65,0,5.36,8.51.44,8.51,8,0,8.88-8.65,2.29-8.65,8.88,0,2.37,1.88,3.25,3.7,3.25,1.4,0,2.72-.44,3.98-.44,2.86,0,4.19,2.9,4.19,5.98Z"/>
    <path class="cls-1" d="M518.47,121.73c-8.45,0-9.77-7.83-9.77-18.03,0-4.66.28-9.67.28-14.78,0-11.87.07-22.34,8.45-22.34,13.33,0,22.96,10.03,22.96,28.67,0,15.83-9,26.47-21.92,26.47ZM527.69,91.74c0-3.08-2.51-7.12-4.75-7.12-2.09,0-2.23,1.67-2.23,4.84v8.79c0,2.11.07,4.05,1.4,4.05,2.16,0,5.58-4.75,5.58-10.55Z"/>
  </g>
  <text/>
</svg>